<?xml version="1.0" encoding="utf-8"?>
<!-- Generator: Adobe Illustrator 21.1.0, SVG Export Plug-In . SVG Version: 6.00 Build 0)  -->
<svg version="1.1" id="Layer_1" xmlns="http://www.w3.org/2000/svg" xmlns:xlink="http://www.w3.org/1999/xlink" x="0px" y="0px"
	 viewBox="0 0 198 276" style="enable-background:new 0 0 198 276;" xml:space="preserve">
<style type="text/css">
	.st0 {
		fill:none;
		stroke: #FF5000;
		stroke-width: 2;
		stroke-miterlimit:10;
	}
</style>
<g>
	<g>
		<g id="layer1_1_">
			<path class="st0" d="M61.1,256c-1.5-0.9-25.5-15.2-37.3-22.2c-0.4-0.3-0.8-0.6-1.2-0.9c-3.1-2.7-2.7-7.7,0.6-10.2l22.6-21.2
				c0.1-0.1,0.2-0.2,0.3-0.2c2.8-1.7,5.6-3.9,9.2-1.8c13.9,8.1,29.7,15.6,31.3,16.5c19.1,9.9,41.9,3.3,52.6-16
				c10.6-19.3,4.5-43.8-13.8-54.6c-1.6-0.9-25.9-15.2-40-23.2c-3.5-2-4.9-6.2-3.1-9.4l17.1-31.1c1.7-3.1,5.9-4.1,9.3-2.1
				c11.9,6.9,35.9,21.1,37.4,22c40.2,23.8,53.8,77.7,30.3,120.4C153,264.6,101.3,279.8,61.1,256z"/>
		</g>
	</g>
</g>
<g>
	<g>
		<g>
			<g id="layer1_34_">
				<path class="st0" d="M112.4,164.5l-17.1,31.1c-1.7,3.1-5.9,4.1-9.3,2.1c-11.9-6.9-35.9-21.1-37.4-22
					C8.5,151.8-5.1,97.9,18.4,55.3C40.9,14.4,89.3-1.3,128.7,18.5L106,60.3c-18.6-8-40.2-1.6-50.5,17c-10.6,19.3-4.5,43.8,13.8,54.6
					c1.6,0.9,25.9,15.2,40,23.2C112.8,157,114.2,161.3,112.4,164.5z"/>
			</g>
		</g>
	</g>
</g>
</svg>
