<?xml version="1.0" encoding="utf-8"?>
<!-- Generator: Adobe Illustrator 21.1.0, SVG Export Plug-In . SVG Version: 6.00 Build 0)  -->
<svg version="1.1" id="Layer_1" xmlns="http://www.w3.org/2000/svg" xmlns:xlink="http://www.w3.org/1999/xlink" x="0px" y="0px"
	 viewBox="0 0 700.5 241.5" style="enable-background:new 0 0 700.5 241.5;" xml:space="preserve">
<style type="text/css">
	.st0{fill:#020203;}
	.st1{fill:#FF5000;}
</style>
<g>
	<g>
		<path class="st0" d="M230.1,84.3c-0.4-6-4-9-12-9c-6.8,0-10.5,2.1-10.5,6.8c0,3.1,2.3,5.7,9.2,7.4c9.2,2.3,15.5,4.2,20.6,6.8
			c5.6,2.8,8.9,7.2,8.9,16.2c0,12.5-10.6,19.6-24.8,19.6c-19.4,0-28.6-7.4-29.1-21.7h14.3c0.2,5.9,5.8,9.5,12.9,9.5
			c8.7,0,12.3-2.8,12.3-7.5c0-3.9-2.1-6.1-9.6-8c-20.4-5.4-28.4-8.7-28.4-22.1c0-10.9,7.9-19.4,24.1-19.4c15.6,0,25.5,8.6,26.2,21.3
			H230.1z"/>
		<path class="st0" d="M282.4,130c-0.5-1.1-0.9-2.6-1-4.1c-2.4,3.1-7.2,5.4-14.4,5.4c-11,0-15.9-5.3-15.9-13.9
			c0-12.5,9.5-14.9,22.4-16.8c5.5-0.8,7-1.9,7-4.9c0-2.7-3.1-4.2-7.1-4.2c-5.4,0-7.4,2.4-7.9,6.1h-12.8c0.2-10,5.7-16.9,21.4-16.9
			c15.4,0,20.7,6.8,20.7,19l0,30.4H282.4z M280.8,107.4c-1.1,1-2.9,1.6-7,2.4c-6.7,1.5-8.7,3.3-8.7,6.7c0,3,1.9,4.6,5.2,4.6
			c6.8,0,10.4-4.7,10.5-9.7L280.8,107.4z"/>
		<path class="st0" d="M305.4,130l0-38.1h-7.2v-10h7.2c0-11.7,6.7-17.6,20.6-17.6v11.4c-5.8,0-6.7,1.3-6.7,6.2h7v10h-7l0,38.1H305.4
			z"/>
		<path class="st0" d="M341.1,109.6c0.4,6.1,4.1,10.5,9.5,10.5c3.5,0,6.7-1.7,7.4-4.2h14.6c-2.9,9.9-10.9,15.4-21.3,15.4
			c-16.2,0-24.3-8.8-24.3-26.2c0-14.9,8.6-24.4,23.5-24.4c14.8,0,22.8,9.1,22.8,26.9v2.1H341.1z M358.9,101.1
			c-0.4-6.4-3.9-9.2-8.8-9.2c-4.9,0-8.3,3.1-8.8,9.2H358.9z"/>
		<path class="st0" d="M415.8,84.3c-0.4-6-4-9-12-9c-6.8,0-10.5,2.1-10.5,6.8c0,3.1,2.3,5.7,9.2,7.4c9.2,2.3,15.5,4.2,20.6,6.8
			c5.6,2.8,8.9,7.2,8.9,16.2c0,12.5-10.6,19.6-24.8,19.6c-19.4,0-28.6-7.4-29.1-21.7h14.3c0.2,5.9,5.8,9.5,12.9,9.5
			c8.7,0,12.3-2.8,12.3-7.5c0-3.9-2.1-6.1-9.6-8c-20.4-5.4-28.4-8.7-28.4-22.1c0-10.9,7.9-19.4,24.1-19.4c15.6,0,25.5,8.6,26.2,21.3
			H415.8z"/>
		<path class="st0" d="M468,130l0-30.1c0-6-2.3-8-7.3-8c-5.4,0-8.4,3.5-8.4,9.1l0,29h-14.2l0-65.7h14.2l0,23.3
			c2.2-4.3,7-6.9,13.4-6.9c9.8,0,16.6,6.1,16.6,15l0,34.4H468z"/>
		<path class="st0" d="M489.2,106c0-15.2,9.6-25.3,25-25.3c15.2,0,24.7,10,24.7,25.3c0,15.2-9.6,25.3-24.7,25.3
			C498.5,131.3,489.2,120.9,489.2,106z M524.7,106c0-9.2-3.4-13.3-10.5-13.3c-7,0-10.5,4.1-10.5,13.3c0,9.2,3.4,13.5,10.5,13.5
			C521.3,119.5,524.7,115.2,524.7,106z"/>
		<path class="st0" d="M582.2,130l-6.7-25.7l-6.7,25.7h-14.5l-13.5-48.1h14.9l7,28.9l5.6-28.9h14.4l6.6,28.9l6.5-28.9h14.6
			L596.6,130H582.2z"/>
		<path class="st0" d="M641.4,96.5c-0.4-3.9-2.4-6.3-7.6-6.3c-4.9,0-7.1,1.7-7.1,4.2c0,2.1,2.4,3.5,6.7,4.6
			c15.3,3.7,22.7,5.6,22.7,16.8c0,9.1-6.2,15.4-21.6,15.4c-14.2,0-22.9-6.5-23.1-16.7h14.5c0,3.8,3.4,6.5,8.7,6.5
			c4.6,0,7.7-1.3,7.7-4.4c0-2.4-1.8-3.5-6.4-4.6c-18.8-4.2-22.8-9.2-22.8-17.7c0-7.2,5.4-13.8,21-13.8c14.1,0,19.9,6,20.5,15.8
			H641.4z"/>
	</g>
	<g>
		<path d="M230.9,159.6h-7.3l0,20h-3l0-20h-7.3v-2.6h17.7V159.6z"/>
		<path d="M252.5,157.1l0,22.6h-3.1l0-10.3h-12.2l0,10.3h-3.1l0-22.6h3.1l0,10.1h12.2v-10.1H252.5z"/>
		<path d="M272.2,177.1l0,2.5h-13.9v-22.6h13.9v2.5h-10.9v7.5h8.8v2.4h-8.8v7.7L272.2,177.1z"/>
		<path d="M298.5,177.1l0,2.5h-13.9l0-22.6h13.9v2.5h-10.9v7.5h8.8v2.4h-8.8v7.7H298.5z"/>
		<path d="M321.1,157.1l-9.2,22.6h-2.7l-9.2-22.6h2.4c0.3,0,0.5,0.1,0.7,0.2c0.2,0.1,0.3,0.3,0.4,0.5l6.4,15.9
			c0.1,0.4,0.3,0.7,0.4,1.2c0.1,0.4,0.2,0.9,0.4,1.3c0.1-0.5,0.2-0.9,0.3-1.3c0.1-0.4,0.2-0.8,0.4-1.2l6.3-15.9
			c0.1-0.2,0.2-0.3,0.4-0.5c0.2-0.2,0.4-0.2,0.7-0.2H321.1z"/>
		<path d="M338,177.1l0,2.5h-13.9v-22.6H338v2.5h-10.9l0,7.5h8.8v2.4h-8.8v7.7H338z"/>
		<path d="M360.6,157.1l0,22.6H359c-0.2,0-0.4,0-0.6-0.1c-0.2-0.1-0.3-0.2-0.5-0.4l-13.1-17c0,0.3,0,0.5,0,0.8c0,0.3,0,0.5,0,0.7
			v16.1h-2.7v-22.6h1.6c0.1,0,0.3,0,0.3,0s0.2,0,0.3,0.1c0.1,0,0.1,0.1,0.2,0.2c0.1,0.1,0.2,0.2,0.2,0.3l13.1,17
			c0-0.3,0-0.5-0.1-0.8c0-0.3,0-0.5,0-0.7v-16H360.6z"/>
		<path d="M381.6,159.6h-7.3v20h-3v-20h-7.3v-2.6h17.7V159.6z"/>
		<path d="M403.6,160.6c-0.1,0.2-0.2,0.3-0.3,0.4c-0.1,0.1-0.2,0.1-0.4,0.1c-0.2,0-0.4-0.1-0.6-0.3c-0.2-0.2-0.5-0.4-0.9-0.6
			c-0.4-0.2-0.8-0.4-1.3-0.6c-0.5-0.2-1.1-0.3-1.9-0.3c-0.7,0-1.3,0.1-1.8,0.3c-0.5,0.2-1,0.4-1.3,0.7c-0.4,0.3-0.6,0.7-0.8,1.1
			c-0.2,0.4-0.3,0.9-0.3,1.4c0,0.6,0.2,1.2,0.5,1.6c0.3,0.4,0.7,0.8,1.2,1.1c0.5,0.3,1.1,0.5,1.7,0.8c0.6,0.2,1.3,0.4,2,0.7
			c0.7,0.2,1.3,0.5,2,0.8c0.6,0.3,1.2,0.7,1.7,1.1c0.5,0.4,0.9,1,1.2,1.6c0.3,0.6,0.5,1.4,0.5,2.4c0,1-0.2,1.9-0.5,2.8
			s-0.8,1.6-1.5,2.3c-0.6,0.6-1.4,1.1-2.4,1.5c-0.9,0.4-2,0.6-3.2,0.6c-1.5,0-2.8-0.3-4-0.8c-1.2-0.5-2.2-1.2-3.1-2.2l0.9-1.4
			c0.1-0.1,0.2-0.2,0.3-0.3c0.1-0.1,0.3-0.1,0.4-0.1c0.1,0,0.3,0.1,0.5,0.2c0.2,0.1,0.4,0.2,0.6,0.4c0.2,0.2,0.5,0.4,0.8,0.6
			c0.3,0.2,0.6,0.4,1,0.6c0.4,0.2,0.8,0.3,1.2,0.4c0.5,0.1,1,0.2,1.6,0.2c0.7,0,1.4-0.1,1.9-0.3c0.6-0.2,1-0.5,1.4-0.8
			c0.4-0.4,0.7-0.8,0.9-1.3c0.2-0.5,0.3-1.1,0.3-1.7c0-0.7-0.2-1.2-0.5-1.7c-0.3-0.4-0.7-0.8-1.2-1.1s-1.1-0.5-1.7-0.7
			c-0.7-0.2-1.3-0.4-2-0.6c-0.7-0.2-1.3-0.5-2-0.7c-0.7-0.3-1.2-0.7-1.7-1.1c-0.5-0.5-0.9-1-1.2-1.7c-0.3-0.7-0.5-1.5-0.5-2.5
			c0-0.8,0.2-1.6,0.5-2.3c0.3-0.7,0.8-1.4,1.4-2c0.6-0.6,1.3-1,2.2-1.4s1.9-0.5,3-0.5c1.3,0,2.4,0.2,3.4,0.6c1,0.4,1.9,1,2.7,1.7
			L403.6,160.6z"/>
		<path d="M427.1,179.6h-2.4c-0.3,0-0.5-0.1-0.7-0.2c-0.2-0.1-0.3-0.3-0.4-0.5l-2.1-5.4h-10.1l-2.1,5.4c-0.1,0.2-0.2,0.4-0.4,0.5
			c-0.2,0.1-0.4,0.2-0.7,0.2h-2.4l9-22.6h3.1L427.1,179.6z M420.7,171.3l-3.5-9.2c-0.1-0.3-0.2-0.6-0.3-1c-0.1-0.4-0.2-0.7-0.3-1.2
			c-0.2,0.9-0.4,1.6-0.7,2.1l-3.5,9.2H420.7z"/>
		<path d="M433.1,159.5v7.9h9.3v2.5h-9.3l0,9.7h-3.1l0-22.6H444v2.5H433.1z"/>
		<path d="M461.8,177.1l0,2.5h-13.9l0-22.6h13.9v2.5h-10.9v7.5h8.8v2.4h-8.8l0,7.7H461.8z"/>
		<path d="M481.3,159.6H474v20h-3v-20h-7.3v-2.6h17.7V159.6z"/>
		<path d="M493.2,170.6v9h-3.1l0-9l-8.3-13.6h2.7c0.3,0,0.5,0.1,0.6,0.2c0.2,0.1,0.3,0.3,0.4,0.5l5.2,8.8c0.2,0.4,0.4,0.7,0.5,1
			c0.2,0.3,0.3,0.6,0.4,1c0.1-0.3,0.2-0.6,0.4-1c0.1-0.3,0.3-0.7,0.5-1l5.2-8.8c0.1-0.2,0.2-0.3,0.4-0.5c0.2-0.1,0.4-0.2,0.6-0.2
			h2.7L493.2,170.6z"/>
		<path d="M525.1,177.1l0,2.5h-13.9v-22.6h13.9v2.5h-10.9v7.5h8.8v2.4h-8.8l0,7.7H525.1z"/>
		<path d="M546.6,179.6h-3c-0.2,0-0.4-0.1-0.5-0.2c-0.1-0.1-0.2-0.3-0.3-0.4l-6-9.5c-0.1,0.3-0.2,0.5-0.3,0.6l-5.9,8.8
			c-0.1,0.1-0.2,0.3-0.3,0.4c-0.1,0.1-0.3,0.2-0.5,0.2h-2.8l7.8-11.6l-7.5-11h3c0.2,0,0.4,0,0.5,0.1c0.1,0.1,0.2,0.2,0.3,0.3l5.9,9
			c0.1-0.2,0.2-0.5,0.3-0.7l5.6-8.3c0.1-0.1,0.2-0.3,0.3-0.4c0.1-0.1,0.3-0.1,0.4-0.1h2.9l-7.5,10.8L546.6,179.6z"/>
		<path d="M556.5,157.1c1.4,0,2.7,0.2,3.7,0.5c1.1,0.3,1.9,0.8,2.6,1.4c0.7,0.6,1.2,1.3,1.6,2.2c0.3,0.9,0.5,1.8,0.5,2.9
			c0,1-0.2,2-0.6,2.9c-0.4,0.9-0.9,1.6-1.6,2.3c-0.7,0.6-1.6,1.1-2.6,1.5c-1,0.4-2.2,0.5-3.6,0.5h-3.6v8.4h-3v-22.6H556.5z
			 M556.5,168.8c0.9,0,1.6-0.1,2.3-0.3c0.7-0.2,1.2-0.6,1.7-1c0.5-0.4,0.8-0.9,1-1.5c0.2-0.6,0.3-1.2,0.3-1.9c0-1.4-0.4-2.6-1.3-3.4
			c-0.9-0.8-2.2-1.2-4-1.2h-3.6v9.3H556.5z"/>
		<path d="M582.7,177.1l0,2.5h-13.9v-22.6h13.9v2.5h-10.9v7.5h8.8v2.4h-8.8v7.7H582.7z"/>
		<path d="M603.6,179.6h-2.7c-0.6,0-1-0.2-1.2-0.6l-5.9-8.1c-0.2-0.3-0.4-0.4-0.6-0.5s-0.5-0.2-1-0.2H590v9.4h-3v-22.6h6.4
			c1.4,0,2.7,0.1,3.7,0.4c1,0.3,1.9,0.7,2.6,1.3c0.7,0.5,1.2,1.2,1.5,2c0.3,0.8,0.5,1.6,0.5,2.6c0,0.8-0.1,1.5-0.4,2.2
			c-0.3,0.7-0.6,1.3-1.1,1.9c-0.5,0.6-1.1,1-1.7,1.4c-0.7,0.4-1.5,0.7-2.3,0.9c0.4,0.2,0.7,0.5,1,1L603.6,179.6z M593.2,168
			c0.9,0,1.7-0.1,2.3-0.3c0.7-0.2,1.2-0.5,1.7-0.9c0.5-0.4,0.8-0.9,1-1.4s0.3-1.1,0.3-1.8c0-1.3-0.4-2.4-1.3-3c-0.9-0.7-2.2-1-4-1
			H590v8.5H593.2z"/>
		<path d="M621.2,159.6h-7.3v20h-3v-20h-7.3v-2.6h17.7V159.6z"/>
		<path d="M636,160.6c-0.1,0.2-0.2,0.3-0.3,0.4c-0.1,0.1-0.2,0.1-0.4,0.1c-0.2,0-0.4-0.1-0.6-0.3c-0.2-0.2-0.5-0.4-0.9-0.6
			c-0.4-0.2-0.8-0.4-1.3-0.6c-0.5-0.2-1.1-0.3-1.8-0.3c-0.7,0-1.3,0.1-1.8,0.3c-0.5,0.2-1,0.4-1.3,0.7c-0.4,0.3-0.6,0.7-0.8,1.1
			c-0.2,0.4-0.3,0.9-0.3,1.4c0,0.6,0.2,1.2,0.5,1.6c0.3,0.4,0.7,0.8,1.2,1.1c0.5,0.3,1.1,0.5,1.7,0.8s1.3,0.4,2,0.7
			c0.7,0.2,1.3,0.5,2,0.8c0.6,0.3,1.2,0.7,1.7,1.1c0.5,0.4,0.9,1,1.2,1.6c0.3,0.6,0.5,1.4,0.5,2.4c0,1-0.2,1.9-0.5,2.8
			c-0.3,0.9-0.8,1.6-1.5,2.3c-0.6,0.6-1.4,1.1-2.4,1.5c-0.9,0.4-2,0.6-3.2,0.6c-1.5,0-2.8-0.3-4-0.8c-1.2-0.5-2.2-1.2-3.1-2.2
			l0.9-1.4c0.1-0.1,0.2-0.2,0.3-0.3c0.1-0.1,0.3-0.1,0.4-0.1c0.1,0,0.3,0.1,0.5,0.2c0.2,0.1,0.4,0.2,0.6,0.4
			c0.2,0.2,0.5,0.4,0.8,0.6c0.3,0.2,0.6,0.4,1,0.6c0.4,0.2,0.8,0.3,1.2,0.4c0.5,0.1,1,0.2,1.6,0.2c0.7,0,1.4-0.1,1.9-0.3
			c0.6-0.2,1-0.5,1.4-0.8c0.4-0.4,0.7-0.8,0.9-1.3c0.2-0.5,0.3-1.1,0.3-1.7c0-0.7-0.2-1.2-0.5-1.7c-0.3-0.4-0.7-0.8-1.2-1.1
			c-0.5-0.3-1.1-0.5-1.7-0.7s-1.3-0.4-2-0.6c-0.7-0.2-1.3-0.5-2-0.7c-0.7-0.3-1.2-0.7-1.7-1.1c-0.5-0.5-0.9-1-1.2-1.7
			c-0.3-0.7-0.5-1.5-0.5-2.5c0-0.8,0.2-1.6,0.5-2.3c0.3-0.7,0.8-1.4,1.4-2c0.6-0.6,1.3-1,2.2-1.4c0.9-0.3,1.9-0.5,3-0.5
			c1.3,0,2.4,0.2,3.4,0.6c1,0.4,1.9,1,2.7,1.7L636,160.6z"/>
	</g>
</g>
<g>
	<g>
		<g>
			<g id="layer1_1_">
				<path class="st1" d="M79.4,195.5c-0.9-0.5-16.1-9.6-23.5-14c-0.3-0.2-0.5-0.3-0.7-0.6c-1.9-1.7-1.7-4.9,0.4-6.4l14.2-13.4
					c0.1,0,0.1-0.1,0.2-0.1c1.7-1.1,3.5-2.5,5.8-1.2c8.8,5.1,18.8,9.9,19.8,10.4c12,6.3,26.5,2.1,33.2-10.1
					c6.7-12.2,2.8-27.6-8.7-34.4c-1-0.6-16.3-9.6-25.2-14.7c-2.2-1.3-3.1-3.9-2-5.9l10.8-19.6c1.1-2,3.7-2.6,5.8-1.3
					c7.5,4.4,22.7,13.3,23.6,13.9c25.4,15,34,49,19.1,76C137.4,200.9,104.8,210.6,79.4,195.5z"/>
			</g>
		</g>
	</g>
	<g>
		<g>
			<g>
				<g id="layer1_34_">
					<path class="st1" d="M111.8,137.7L101,157.3c-1.1,2-3.7,2.6-5.8,1.3c-7.5-4.4-22.7-13.3-23.6-13.9c-25.4-15-34-49-19.1-76
						C66.6,43,97.2,33.1,122.1,45.6L107.8,72C96,67,82.4,71,75.9,82.7c-6.7,12.2-2.8,27.6,8.7,34.4c1,0.6,16.3,9.6,25.2,14.7
						C112,133.1,112.9,135.7,111.8,137.7z"/>
				</g>
			</g>
		</g>
	</g>
</g>
</svg>
